# xmcd CD database file
#
# Track frame offsets:
#	150
#	74207
#	103263
#	159916
#	222409
#	246720
#	282696
#
# Disc length: 4355 seconds
#
# Revision: 0
# Processed by: cddbd v1.5PL3 Copyright (c) Steve Scherf et al.
# Submitted via: CDex 1.51
#
DISCID=7a110107
DTITLE=MAGMA - Rombas Salle des fêtes 02 avril 1977 Zund 1
DYEAR=1977
DGENRE=Jazz
TTITLE0=De Futura
TTITLE1=Ëmëhntëht-Rë
TTITLE2=Hhaï
TTITLE3=Zombies and Ptâh
TTITLE4=La Dawotsin
TTITLE5=Morrison in the storm
TTITLE6=Om Zanka
EXTD=YEAR: 1977
EXTT0=
EXTT1=
EXTT2=
EXTT3=
EXTT4=
EXTT5=
EXTT6=
PLAYORDER=
